<svg width="78" height="28" viewBox="0 0 78 28" fill="none" xmlns="http://www.w3.org/2000/svg">
<mask id="mask0_23890_788" style="mask-type:luminance" maskUnits="userSpaceOnUse" x="-1" y="0" width="79" height="28">
<path d="M77.2907 0H-0.000976562V28H77.2907V0Z" fill="white"/>
</mask>
<g mask="url(#mask0_23890_788)">
<path d="M46.6572 8.86426L44.8419 15.6314L43.0213 8.86426H41.0756L39.2617 15.6314L37.44 8.86426H35.4829L38.0898 18.4897H40.2123L42.0568 11.5358L43.885 18.4897H46.0071L48.6222 8.86426H46.6572Z" fill="#FF1D04"/>
<path d="M51.4275 8.86426L47.4541 18.4897H49.5036L50.3926 16.1752H54.3774L55.2667 18.4897H57.2955L53.3286 8.86426H51.4286H51.4275ZM53.7264 14.5566H51.027L52.3742 11.1788L53.7264 14.5566Z" fill="#FF1D04"/>
<path d="M63.9374 15.5828L60.0868 8.86426H57.834V18.4897H59.7173V11.7712L63.5679 18.4897H65.8219V8.86426H63.9374V15.5828Z" fill="#FF1D04"/>
<path d="M72.2078 13.1736V14.7794H74.3647V16.7152C74.1395 16.8188 73.8887 16.8995 73.6189 16.9545C73.2747 17.0248 72.8743 17.0607 72.4303 17.0607C71.3264 17.0607 70.4948 16.7805 69.9576 16.2277C69.4177 15.6724 69.1438 14.8177 69.1438 13.688C69.1438 12.5582 69.4177 11.6971 69.9576 11.1418C70.4948 10.5891 71.3275 10.3089 72.4303 10.3089C72.9985 10.3089 73.5486 10.401 74.0628 10.5814C74.5782 10.7631 75.072 11.0382 75.5325 11.399L76.0199 11.7815V9.6896L75.8703 9.6026C75.3651 9.30833 74.8048 9.08185 74.2072 8.9296C73.6125 8.77864 72.9778 8.70312 72.3204 8.70312C70.7226 8.70312 69.4483 9.14713 68.5337 10.0223C67.6164 10.9013 67.1509 12.1347 67.1509 13.688C67.1509 15.2412 67.6164 16.4683 68.5337 17.3472C69.4483 18.2224 70.7226 18.6664 72.3204 18.6664C73.042 18.6664 73.73 18.5755 74.3685 18.3977C75.0093 18.2186 75.6054 17.9512 76.1389 17.6006L76.2745 17.511V13.1736H72.209H72.2078Z" fill="#FF1D04"/>
<path d="M36.3358 21.4606C35.8805 21.0998 35.2062 20.9155 34.33 20.9155H31.8955V28H33.1249V25.2312H34.3312C35.2077 25.2312 35.8829 25.0482 36.337 24.6887C36.799 24.3241 37.0329 23.779 37.0329 23.0715C37.0329 22.3639 36.799 21.8278 36.337 21.4606H36.3358ZM35.3853 23.9569C35.1409 24.1654 34.7865 24.2703 34.33 24.2703H33.1237V21.8739H34.33C34.7865 21.8739 35.1409 21.9801 35.3853 22.1873C35.6285 22.3946 35.7461 22.6838 35.7461 23.0689C35.7461 23.454 35.6285 23.7483 35.3853 23.9556V23.9569Z" fill="#1033B4"/>
<path d="M43.2914 23.7406H39.7196V20.9155H38.4902V28H39.7196V24.7181H43.2914V28H44.5193V20.9155H43.2914V23.7406Z" fill="#1033B4"/>
<path d="M48.6576 20.9155L45.6528 28H46.9563L47.6534 26.2318H50.9731L51.6702 28H52.9585L49.9587 20.9155H48.6564H48.6576ZM50.5727 25.2632H48.0448L49.3062 22.1848L50.5727 25.2632Z" fill="#1033B4"/>
<path d="M58.5442 25.0393C58.4007 24.8883 58.2525 24.7706 58.1015 24.6862C58.4275 24.5633 58.6886 24.3791 58.8779 24.136C59.1147 23.834 59.2349 23.4502 59.2349 22.996C59.2349 22.3025 59.0048 21.7754 58.5503 21.4286C58.1041 21.0883 57.426 20.9155 56.5332 20.9155H54.0986V28H55.328V25.0879H56.3605C56.7505 25.0879 57.0602 25.1596 57.2801 25.299C57.5027 25.4398 57.7395 25.7379 57.9836 26.1831L58.9905 28H60.3248L59.194 25.9746C58.9791 25.5818 58.7615 25.267 58.5454 25.0406L58.5442 25.0393ZM55.3268 21.8751H56.5332C57.0077 21.8751 57.367 21.9711 57.6039 22.1605C57.8366 22.3473 57.9492 22.6211 57.9492 22.9972C57.9492 23.3734 57.8355 23.6485 57.6024 23.8379C57.367 24.0298 57.0065 24.1283 56.5332 24.1283H55.3268V21.8751Z" fill="#1033B4"/>
<path d="M65.2525 25.4513L63.3631 20.9155H61.6577V28H62.8565V22.3332L64.6703 26.6745H65.8396L67.6523 22.3332V28H68.8561V20.9155H67.1521L65.2525 25.4513Z" fill="#1033B4"/>
<path d="M74.2917 20.9155H72.9894L69.9844 28H71.2878L71.9852 26.2318H75.3047L76.002 28H77.2903L74.2902 20.9155H74.2917ZM74.903 25.2632H72.3752L73.6366 22.1848L74.903 25.2632Z" fill="#1033B4"/>
<path d="M15.0338 19.5376L14.1869 18.4436C14.0615 18.2926 13.9311 18.1416 13.7954 17.9894C9.5291 19.796 5.25254 21.11 2.56609 20.6712C-0.0832608 20.2387 0.433561 18.1979 2.56609 16.0318V15.9985C1.57082 17.0387 0.837808 18.0278 0.413092 18.9221C-0.51565 20.881 0.127817 22.1694 2.22581 22.5507C4.51314 22.9653 8.20123 22.218 12.2373 20.6942L14.531 19.75C14.7933 19.6386 14.9928 19.5542 15.0338 19.5376Z" fill="#95D1D2"/>
<path d="M28.4838 4.23105C26.7721 3.95085 24.3428 4.28481 21.5924 5.0819V5.56301C23.6559 5.0077 25.443 4.8708 26.6416 5.14972C27.7175 5.40049 28.2036 5.99546 28.1448 6.86422C28.1282 7.10989 28.0744 7.34786 27.9875 7.5884C27.9785 7.61526 27.967 7.64215 27.9567 7.66902C27.9427 7.70612 27.9273 7.74322 27.912 7.77903C27.802 8.04261 27.6472 8.32282 27.4386 8.61965C27.4348 8.62478 27.4322 8.62988 27.4284 8.6363C27.4258 8.64012 27.4233 8.64397 27.4207 8.64782C26.7786 9.59717 25.7167 10.6553 24.3646 11.748C23.9731 12.064 23.5561 12.3826 23.1122 12.7025C22.6017 13.0697 22.099 13.4074 21.5566 13.7529L21.3417 15.0068C21.2624 15.4687 21.7127 15.8141 22.122 15.6708C22.5186 15.4226 22.9101 15.1718 23.2426 14.9428C23.7531 14.5922 24.2405 14.2404 24.7049 13.8911C24.8596 13.7746 25.0119 13.6582 25.1616 13.5418C25.3905 13.364 25.6131 13.1874 25.8306 13.0108C25.8588 12.9878 25.8882 12.9647 25.9163 12.9417C25.9828 12.8867 26.0481 12.8317 26.1146 12.7779C26.1683 12.7332 26.2246 12.6871 26.2771 12.6423C26.327 12.6001 26.3756 12.5579 26.4255 12.5156C26.492 12.4581 26.5598 12.4018 26.625 12.3442C26.6736 12.302 26.7197 12.261 26.767 12.2188C26.8323 12.1625 26.8975 12.1049 26.9602 12.0487C27.0139 12.0013 27.0651 11.9527 27.1175 11.9054C27.1725 11.8555 27.2288 11.8055 27.2826 11.7556C27.3325 11.7096 27.3811 11.6635 27.431 11.6162C27.4847 11.565 27.541 11.5138 27.5934 11.4626C27.6395 11.4191 27.683 11.3756 27.7278 11.3321C27.7815 11.2797 27.8365 11.2272 27.8889 11.1748C27.935 11.1287 27.9798 11.0827 28.0258 11.0379C28.0744 10.9879 28.1256 10.9381 28.1729 10.8895C28.2164 10.8447 28.2586 10.7999 28.3008 10.7551C28.3482 10.7052 28.3968 10.6553 28.4429 10.6067C28.4838 10.5632 28.5222 10.5197 28.5618 10.4762C28.6079 10.4263 28.6539 10.3764 28.6987 10.3265C28.7371 10.2842 28.7729 10.242 28.81 10.1998C28.8548 10.1499 28.8996 10.0987 28.943 10.0488C28.9789 10.0079 29.0121 9.96566 29.0467 9.92471C29.0889 9.87483 29.1311 9.82493 29.172 9.77502C29.2078 9.73151 29.2411 9.68802 29.2755 9.64579C29.3128 9.59845 29.3511 9.55239 29.3869 9.50506C29.4216 9.46154 29.4523 9.41805 29.4855 9.37454C29.5199 9.32848 29.5546 9.28371 29.5879 9.23766C29.6185 9.19542 29.6465 9.15447 29.676 9.11352C29.7107 9.0649 29.7466 9.01503 29.7798 8.96641C30.4206 8.03109 30.7799 7.1777 30.8196 6.44582C30.8838 5.25848 30.0764 4.49335 28.4838 4.23362V4.23105Z" fill="#95D1D2"/>
<path d="M12.562 27.9934H12.6618C12.6452 27.9934 12.6285 27.9896 12.6119 27.9883C12.5953 27.9883 12.5799 27.9934 12.562 27.9934Z" fill="#FF1D04"/>
<path d="M11.7126 27.0441V26.9238C11.7075 27.0377 11.7075 27.1528 11.7036 27.2667C11.774 27.6787 12.1309 27.9935 12.5633 27.9935C12.5786 27.9935 12.594 27.9884 12.6093 27.9884C12.1104 27.9602 11.7126 27.5508 11.7126 27.0441Z" fill="#FF1D04"/>
<path d="M8.9802 14.1431C9.04673 14.1802 9.08765 14.2045 9.15547 14.2429C9.21176 14.2749 9.26805 14.3069 9.3256 14.3401C9.39084 14.3773 9.45737 14.4182 9.52262 14.4579C9.58145 14.4937 9.6403 14.527 9.70042 14.5641C9.76823 14.6063 9.8373 14.6511 9.90639 14.6946C9.9665 14.733 10.0254 14.7688 10.0868 14.8084C10.1584 14.8545 10.2313 14.9057 10.3042 14.9543C10.3644 14.994 10.4232 15.0324 10.4833 15.0733C10.5588 15.1245 10.6343 15.1795 10.711 15.2332C10.7712 15.2755 10.8287 15.3164 10.8889 15.3599C10.9695 15.4188 11.0513 15.4814 11.1332 15.5429C11.1895 15.5851 11.2445 15.626 11.3021 15.6695C11.3967 15.7424 11.4927 15.8205 11.5886 15.8973C11.6321 15.9318 11.6756 15.9651 11.7191 16.0009C11.8598 16.1161 11.9992 16.2338 12.1413 16.3566C12.1221 16.3681 12.1029 16.3784 12.0837 16.3899H12.0824C12.0747 16.3937 12.0671 16.3988 12.0594 16.4027C12.0555 16.4052 12.0517 16.4065 12.0479 16.409C12.0479 16.409 12.0479 16.409 12.0466 16.409C12.0376 16.4142 12.03 16.418 12.021 16.4231C11.9801 16.4462 11.9404 16.4692 11.8995 16.4922C11.8176 16.537 11.7357 16.5831 11.6539 16.6266C11.572 16.6713 11.4888 16.7149 11.407 16.7571C11.4044 16.7583 11.4006 16.7596 11.398 16.7622C11.398 16.7622 11.3954 16.7622 11.3942 16.7635C11.3903 16.766 11.3865 16.7673 11.3827 16.7699C11.3072 16.8083 11.233 16.8466 11.1575 16.885C11.0743 16.9273 10.9899 16.9682 10.9055 17.0091C10.8211 17.0501 10.7366 17.0897 10.6522 17.1294C10.5678 17.1691 10.4821 17.2075 10.3963 17.2458C10.3106 17.2842 10.2249 17.3213 10.1379 17.3584C10.0509 17.3955 9.96522 17.4314 9.87825 17.4672C9.79124 17.503 9.70427 17.5376 9.61601 17.5721C9.52772 17.6067 9.44075 17.6399 9.35246 17.6732C9.2642 17.7064 9.17594 17.7384 9.08637 17.7704C8.99683 17.8024 8.90857 17.8331 8.81903 17.8638C8.72946 17.8945 8.63992 17.924 8.54909 17.9534C8.45955 17.9828 8.36872 18.011 8.2779 18.0391C8.18708 18.0673 8.09622 18.0941 8.0054 18.121C7.91457 18.1479 7.82246 18.1735 7.73035 18.199C7.63825 18.2246 7.54614 18.2489 7.45406 18.272C7.36195 18.2963 7.26856 18.3193 7.17645 18.3411C7.08306 18.3641 6.98967 18.3859 6.89628 18.4063C6.80291 18.4268 6.70952 18.4473 6.61485 18.4677C6.52017 18.4869 6.42681 18.5061 6.33213 18.524C6.23746 18.542 6.14281 18.5599 6.04814 18.5765C5.95346 18.5931 5.85753 18.6098 5.76286 18.6251C5.66693 18.6405 5.57097 18.6558 5.4763 18.6686C5.38037 18.6827 5.28441 18.6955 5.1872 18.7083C5.09124 18.7211 4.99402 18.7326 4.89681 18.7441C4.79957 18.7556 4.70236 18.7659 4.60512 18.7748C4.5079 18.7851 4.41069 18.7927 4.31217 18.8017C4.21367 18.8094 4.11646 18.817 4.01796 18.8234C4.00901 18.8234 4.00005 18.8234 3.99107 18.8247C3.97063 18.826 3.95015 18.8285 3.92968 18.8298C3.78641 18.8401 3.64186 18.8503 3.49856 18.8593C3.36553 18.8682 3.23119 18.8554 3.10712 18.8055C3.01501 18.7697 2.92803 18.7172 2.85254 18.652C2.84359 18.6443 2.83591 18.6341 2.82568 18.6251C2.81033 18.611 2.79626 18.5957 2.78218 18.579C2.76811 18.5637 2.75404 18.5496 2.74125 18.533C2.71822 18.5036 2.69647 18.4729 2.67728 18.4396C2.67345 18.4332 2.66961 18.4281 2.66577 18.423C2.66577 18.4217 2.66577 18.4204 2.66321 18.4191C2.64147 18.3807 2.62355 18.3398 2.6082 18.2976C2.60693 18.2937 2.60437 18.2899 2.60309 18.286C2.60309 18.286 2.60309 18.2835 2.60309 18.2822C2.60309 18.2784 2.60053 18.2758 2.59925 18.272C2.5839 18.231 2.56599 18.1824 2.56599 18.1402V16.0303C0.433461 18.1952 -0.0833606 20.236 2.56599 20.6697C5.25244 21.1086 9.529 19.7933 13.7953 17.9879C13.931 18.1402 14.0601 18.2912 14.1868 18.4421C14.4964 18.8132 14.7778 19.1791 15.0337 19.5361C15.1526 19.7024 15.2652 19.8662 15.3727 20.0274C15.411 20.0837 15.4443 20.1387 15.4801 20.1937C15.5479 20.2974 15.617 20.4023 15.6797 20.5034C15.7193 20.5661 15.7539 20.6275 15.7923 20.6889C15.8473 20.7797 15.9048 20.8719 15.956 20.9602C15.9944 21.0267 16.0289 21.0881 16.066 21.1534C16.1095 21.2301 16.1556 21.3069 16.1952 21.3811C16.3449 21.6536 16.7504 21.6012 16.8297 21.3005L17.619 18.2912L18.2676 15.8192H18.2254C18.2421 15.8103 18.2587 15.8 18.2753 15.7911L18.6693 14.289L18.865 13.543L19.0365 12.8892L19.4804 11.1978L9.07103 13.5047C8.77169 13.5712 8.71027 13.9947 8.97892 14.1431H8.9802Z" fill="#009BDE"/>
<path d="M20.6433 0H12.639C12.1145 0 11.6885 0.426064 11.6885 0.95065V8.96528H3.51789C2.99338 8.96528 2.56738 9.39135 2.56738 9.91591V18.1442C2.56738 18.1903 2.59041 18.2466 2.60576 18.2888C2.62239 18.3361 2.64286 18.3822 2.66845 18.4257C2.71706 18.5114 2.78102 18.5895 2.85522 18.6547C2.92942 18.72 3.0164 18.7724 3.10979 18.8083C3.23515 18.8569 3.3682 18.8697 3.50123 18.862C3.64453 18.853 3.78908 18.8428 3.93235 18.8326C6.50111 18.6406 9.08265 17.9638 11.3956 16.7662C11.6156 16.6524 11.8344 16.5334 12.0493 16.4105C12.08 16.3926 12.112 16.3747 12.1426 16.3568C12.0019 16.234 11.8612 16.115 11.7205 16.0011C11.677 15.9653 11.6335 15.932 11.59 15.8975C11.4941 15.8207 11.3981 15.7427 11.3035 15.6697C11.2472 15.6262 11.1909 15.5853 11.1346 15.543C11.0527 15.4816 10.9721 15.4189 10.8903 15.3601C10.8301 15.3166 10.7713 15.2756 10.7124 15.2334C10.637 15.1797 10.5602 15.1247 10.4847 15.0735C10.4246 15.0325 10.3658 14.9941 10.3056 14.9545C10.2327 14.9059 10.1598 14.856 10.0881 14.8086C10.0267 14.7689 9.96792 14.7331 9.90778 14.6947C9.83871 14.6513 9.76961 14.6065 9.70183 14.5643C9.64169 14.5271 9.58412 14.4939 9.524 14.4581C9.45747 14.4184 9.39097 14.3774 9.32701 14.3403C9.26944 14.3071 9.21315 14.2751 9.15685 14.2431C9.08907 14.2047 9.04812 14.1804 8.98159 14.1433C8.71297 13.9949 8.77308 13.5714 9.0737 13.5048L19.483 11.198L21.5938 8.96528V0.949369C21.5938 0.424786 21.1691 0 20.6446 0H20.6433Z" fill="#1033B4"/>
<path d="M24.8547 5.69249C26.2504 5.74367 26.7697 6.59196 25.7016 7.99554C25.6389 8.07742 25.5711 8.16185 25.4994 8.2476C25.3434 8.4331 25.0914 8.68516 24.7946 8.96408C24.0564 9.65886 23.0317 10.5263 22.4625 10.9959C22.1951 11.216 22.0109 11.5192 21.938 11.8583L21.5542 13.7532C22.0953 13.4077 22.5994 13.0699 23.1098 12.7027C23.5537 12.3829 23.972 12.063 24.3622 11.7482C25.7156 10.6556 26.7761 9.59744 27.4183 8.64806C27.4209 8.64424 27.4234 8.64039 27.426 8.63654C27.4298 8.63144 27.4324 8.6263 27.4362 8.61992C27.6358 8.3218 27.7932 8.0467 27.9096 7.7793C27.9262 7.7422 27.9403 7.7051 27.9543 7.66926C27.9646 7.64239 27.9748 7.61553 27.985 7.58867C28.072 7.34813 28.1257 7.11142 28.1424 6.86449C28.2012 5.99445 27.7151 5.39948 26.6393 5.14999C25.4406 4.87107 23.6535 5.00797 21.59 5.56325V6.00979C22.7337 5.76287 24.0244 5.66306 24.8508 5.69377L24.8547 5.69249Z" fill="#009BDE"/>
<path d="M29.7798 8.96409C29.7466 9.01271 29.711 9.06261 29.6763 9.11123C29.6468 9.15218 29.6188 9.19442 29.5882 9.23534C29.555 9.28014 29.5202 9.32619 29.4858 9.37225C29.4526 9.41576 29.4205 9.45925 29.3872 9.50277C29.3514 9.54882 29.3132 9.59616 29.2758 9.6435C29.2414 9.68701 29.2082 9.72922 29.1723 9.77273C29.1314 9.82264 29.0892 9.87251 29.047 9.92242C29.0124 9.96337 28.9791 10.0043 28.9433 10.0465C28.8998 10.0964 28.8551 10.1476 28.8103 10.1975C28.7732 10.2397 28.7374 10.282 28.699 10.3242C28.6542 10.3741 28.6082 10.424 28.5621 10.4739C28.5225 10.5174 28.4828 10.5609 28.4431 10.6044C28.3971 10.6543 28.3485 10.7042 28.3011 10.7528C28.2577 10.7976 28.2167 10.8424 28.1732 10.8871C28.1246 10.937 28.0747 10.9869 28.0261 11.0356C27.98 11.0816 27.9366 11.1277 27.8892 11.1725C27.8368 11.2249 27.7818 11.2774 27.728 11.3299C27.6833 11.3733 27.6398 11.4169 27.5937 11.4603C27.54 11.5115 27.485 11.5627 27.4312 11.6139C27.3814 11.66 27.334 11.706 27.2828 11.7534C27.2291 11.8033 27.1728 11.8532 27.1178 11.903C27.0654 11.9504 27.0142 11.999 26.9605 12.0464C26.8978 12.1027 26.8313 12.1602 26.7673 12.2165C26.72 12.2588 26.6739 12.2997 26.6253 12.3419C26.5601 12.3982 26.4923 12.4558 26.4258 12.5134C26.3758 12.5556 26.3273 12.5978 26.2773 12.64C26.2236 12.6848 26.1686 12.7309 26.1149 12.7756C26.0496 12.8307 25.9844 12.8857 25.9166 12.9394C25.8885 12.9625 25.859 12.9855 25.8309 13.0085C25.6134 13.1851 25.3921 13.3617 25.1618 13.5395C25.0122 13.6559 24.8599 13.7724 24.7052 13.8888C24.2408 14.2381 23.7534 14.5887 23.2429 14.9405C22.8758 15.1939 22.5662 15.4024 22.2554 15.6046C22.2119 15.6327 22.1671 15.6532 22.1223 15.6685C21.7129 15.8118 21.2626 15.4664 21.342 15.0045L21.5569 13.7506L21.9406 11.8557C22.0136 11.5166 22.1978 11.2134 22.4652 10.9933C23.0344 10.5238 24.0578 9.6563 24.7973 8.96155H21.5953L19.4845 11.1942L18.2717 15.817L16.8339 21.2982C16.7571 21.5887 16.3439 21.6424 16.1993 21.3788C16.1546 21.297 16.1187 21.2355 16.0701 21.1511C16.033 21.0871 15.9985 21.0244 15.9601 20.9579C15.909 20.8696 15.8514 20.7775 15.7964 20.6866C15.758 20.6239 15.7235 20.5638 15.6838 20.5011C15.6211 20.4 15.552 20.2951 15.4842 20.1915C15.4471 20.1352 15.4139 20.0814 15.3768 20.0251C15.2693 19.8639 15.1555 19.7002 15.0378 19.5338L11.7168 20.9067V27.0392C11.7168 27.5459 12.1147 27.9553 12.6136 27.9835C12.6136 27.9835 12.6161 27.9835 12.6174 27.9835C12.634 27.9835 20.6473 27.9886 20.6473 27.9886C21.1718 27.9886 21.5978 27.5625 21.5978 27.0379V18.8659H29.6112C30.1357 18.8659 30.5615 18.4399 30.5615 17.9153V9.73563C30.5615 9.307 30.2135 8.95898 29.7851 8.95898L29.7798 8.96409Z" fill="#FF1D04"/>
</g>
</svg>

